# File created by Blade
# Date/Time:  Wed Jan 21 16:02:10 2015
#---------------------------------------------------------
:version 1.10
:name HOM
:units
  mass 1.0
  length 1.000000
  angle deg
:documentation
     Acclaim Skeleton File
:root
   axis xyz
   order TX TY TZ RX RY RZ
   position 0.000000 0.000000 0.000000
   orientation 0 0 0
:bonedata
   begin
      id 1
      name Spine_dum
      direction 0.000000 1.000000 0.000000
      length 7.067664
      axis 0.0 0.0 0.0 xyz
   end
   begin
      id 2
      name LeftUpLeg_dum
      direction 1.000000 0.000000 0.000000
      length 4.013002
      axis 0.0 0.0 0.0 xyz
   end
   begin
      id 3
      name RightUpLeg_dum
      direction -1.000000 0.000000 0.000000
      length 4.013002
      axis 0.0 0.0 0.0 xyz
   end
   begin
      id 4
      name Spine
      direction 0.000000 1.000000 0.000000
      length 0.000000
      axis 0.0 0.0 0.0 xyz
      dof rx ry rz
   end
   begin
      id 5
      name Spine_dum1
      direction 0.000000 1.000000 0.000000
      length 15.039886
      axis 0.0 0.0 0.0 xyz
   end
   begin
      id 6
      name Spine_dum2
      direction 0.000000 1.000000 0.000000
      length 10.530368
      axis 0.0 0.0 0.0 xyz
   end
   begin
      id 7
      name Spine_dum3
      direction 0.000000 1.000000 0.000000
      length 10.530368
      axis 0.0 0.0 0.0 xyz
   end
   begin
      id 8
      name Head
      direction 0.000000 1.000000 0.000000
      length 4.527550
      axis 0.0 0.0 0.0 xyz
      dof rx ry rz
   end
   begin
      id 9
      name LeftShoulder
      direction 1.000000 0.000000 0.000000
      length 7.028855
      axis 0.0 0.0 -90.0 xyz
      dof rx ry rz
   end
   begin
      id 10
      name LeftArm
      direction 1.000000 0.000000 0.000000
      length 10.797705
      axis 0.0 0.0 -90.0 xyz
      dof rx ry rz
   end
   begin
      id 11
      name LeftForeArm
      direction 1.000000 0.000000 0.000000
      length 7.907442
      axis 0.0 0.0 -90.0 xyz
      dof ry rz rx
   end
   begin
      id 12
      name LeftHand
      direction 0.000000 0.000000 0.000000
      length 0.000000
      axis 0.0 0.0 -90.0 xyz
      dof rx ry rz
   end
   begin
      id 13
      name LeftHand_dum1
      direction 0.000000 0.000000 0.000000
      length 0.000000
      axis 0.0 0.0 -90.0 xyz
   end
   begin
      id 14
      name LeftHand_dum2
      direction 1.000000 0.000000 0.000000
      length 3.937000
      axis 0.0 0.0 -90.0 xyz
   end
   begin
      id 15
      name LeftHandThumb1
      direction 0.000000 0.000000 1.000000
      length 3.937000
      axis 0.0 0.0 -90.0 xyz
      dof rx rz ry
   end
   begin
      id 16
      name RightShoulder
      direction -1.000000 0.000000 0.000000
      length 7.028855
      axis 0.0 0.0 90.0 xyz
      dof rx ry rz
   end
   begin
      id 17
      name RightArm
      direction -1.000000 0.000000 0.000000
      length 10.797705
      axis 0.0 0.0 90.0 xyz
      dof rx ry rz
   end
   begin
      id 18
      name RightForeArm
      direction -1.000000 0.000000 0.000000
      length 7.907442
      axis 0.0 0.0 90.0 xyz
      dof ry rz rx
   end
   begin
      id 19
      name RightHand
      direction 0.000000 0.000000 0.000000
      length 0.000000
      axis 0.0 0.0 90.0 xyz
      dof rx ry rz
   end
   begin
      id 20
      name RightHand_dum1
      direction 0.000000 0.000000 0.000000
      length 0.000000
      axis 0.0 0.0 90.0 xyz
   end
   begin
      id 21
      name RightHand_dum2
      direction -1.000000 0.000000 0.000000
      length 3.937000
      axis 0.0 0.0 90.0 xyz
   end
   begin
      id 22
      name RightHandThumb1
      direction 0.000000 0.000000 1.000000
      length 3.937000
      axis 0.0 0.0 90.0 xyz
      dof rx rz ry
   end
   begin
      id 23
      name LeftUpLeg
      direction 0.000000 -1.000000 0.000000
      length 16.899758
      axis 0.0 0.0 0.0 xyz
      dof rx ry rz
   end
   begin
      id 24
      name LeftLeg
      direction 0.000000 -1.000000 0.000000
      length 17.389183
      axis 0.0 0.0 0.0 xyz
      dof rx ry rz
   end
   begin
      id 25
      name LeftFoot
      direction 0.000000 -0.258819 0.965926
      length 4.924528
      axis 15.0 0.0 0.0 xyz
      dof rx ry rz
   end
   begin
      id 26
      name LeftToeBase
      direction 0.000000 0.000000 1.000000
      length 2.952750
      axis 0.0 0.0 0.0 xyz
      dof rx ry rz
   end
   begin
      id 27
      name RightUpLeg
      direction 0.000000 -1.000000 0.000000
      length 16.899758
      axis 0.0 0.0 0.0 xyz
      dof rx ry rz
   end
   begin
      id 28
      name RightLeg
      direction 0.000000 -1.000000 0.000000
      length 17.389183
      axis 0.0 0.0 0.0 xyz
      dof rx ry rz
   end
   begin
      id 29
      name RightFoot
      direction 0.000000 -0.258819 0.965926
      length 4.924528
      axis 15.0 0.0 0.0 xyz
      dof rx ry rz
   end
   begin
      id 30
      name RightToeBase
      direction 0.000000 0.000000 1.000000
      length 2.952750
      axis 0.0 0.0 0.0 xyz
      dof rx ry rz
   end
:hierarchy
   begin
      root Spine_dum LeftUpLeg_dum RightUpLeg_dum
      Spine_dum Spine
      LeftUpLeg_dum LeftUpLeg
      RightUpLeg_dum RightUpLeg
      Spine Spine_dum1 Spine_dum2 Spine_dum3
      Spine_dum1 Head
      Spine_dum2 LeftShoulder
      Spine_dum3 RightShoulder
      LeftShoulder LeftArm
      LeftArm LeftForeArm
      LeftForeArm LeftHand
      LeftHand LeftHand_dum1 LeftHand_dum2
      LeftHand_dum1 LeftHandThumb1
      RightShoulder RightArm
      RightArm RightForeArm
      RightForeArm RightHand
      RightHand RightHand_dum1 RightHand_dum2
      RightHand_dum1 RightHandThumb1
      LeftUpLeg LeftLeg
      LeftLeg LeftFoot
      LeftFoot LeftToeBase
      RightUpLeg RightLeg
      RightLeg RightFoot
      RightFoot RightToeBase
   end

# File created by Blade
# Date/Time:  Wed Jan 21 16:02:01 2015
# Frame Rate: 120.000 fps
#------------------------------------------------------
:FULLY-SPECIFIED
:DEGREES
144
root 24.028776 35.592883 -16.742967 -175.078340 -12.334193 -178.777838
Spine 2.945562 2.364411 -1.162297
Head 32.361803 -2.810074 5.384122
LeftShoulder -10.667040 -20.265538 -0.915143
LeftArm -19.917127 7.602856 -71.974979
LeftForeArm 1.936565 -0.000000 5.479152
LeftHand -1.525339 -0.000000 0.347170
LeftHandThumb1 -26.253704 0.000000 33.147579
RightShoulder -13.494464 -15.410727 9.140976
RightArm 11.988009 1.022311 69.355229
RightForeArm -28.347836 0.000000 8.199202
RightHand -3.841049 -0.000000 -1.513538
RightHandThumb1 -24.326973 -0.000000 -32.862282
LeftUpLeg 5.084423 4.703985 -5.508950
LeftLeg 16.374562 -0.000000 -0.000000
LeftFoot -32.236283 15.898445 -18.710000
LeftToeBase 22.303738 -0.000000 -0.000000
RightUpLeg -8.921931 -5.906328 9.658910
RightLeg 5.164454 -0.000000 -0.000000
RightFoot -21.216037 -32.404945 11.526857
RightToeBase 18.400837 -0.000000 -0.000000
145
root 24.044479 35.588036 -16.696882 -175.046938 -12.548372 -178.737798
Spine 2.817091 2.284914 -1.160054
Head 32.476921 -2.928718 5.402011
LeftShoulder -10.659250 -20.322493 -0.784501
LeftArm -19.956134 7.493828 -71.936044
LeftForeArm 1.588523 -0.000000 5.795567
LeftHand -1.465264 0.000000 0.355572
LeftHandThumb1 -26.253704 0.000000 33.147579
RightShoulder -13.512982 -15.436011 9.149815
RightArm 11.938093 1.196052 69.382203
RightForeArm -28.349764 0.000000 8.224609
RightHand -3.713203 -0.000000 -1.814143
RightHandThumb1 -24.326973 -0.000000 -32.862282
LeftUpLeg 5.533400 4.126187 -5.620059
LeftLeg 15.153285 -0.000000 -0.000000
LeftFoot -31.979780 15.861323 -18.522870
LeftToeBase 22.532365 -0.000000 -0.000000
RightUpLeg -9.226835 -5.866266 9.712244
RightLeg 5.513137 -0.000000 -0.000000
RightFoot -21.367565 -32.549176 11.708726
RightToeBase 18.545747 -0.000000 -0.000000
146
root 24.057439 35.581095 -16.651635 -175.030267 -12.762542 -178.723507
Spine 2.714689 2.266733 -1.203832
Head 32.553302 -3.100839 5.519618
LeftShoulder -10.596988 -20.405947 -0.640285
LeftArm -20.013439 7.369832 -71.919641
LeftForeArm 1.425832 -0.000000 6.035250
LeftHand -1.205302 -0.000000 0.467533
LeftHandThumb1 -26.253704 0.000000 33.147579
RightShoulder -13.610407 -15.387880 9.200434
RightArm 11.854018 1.207711 69.351123
RightForeArm -28.278053 0.000000 8.329932
RightHand -3.776764 -0.000000 -1.900321
RightHandThumb1 -24.326973 -0.000000 -32.862282
LeftUpLeg 5.988954 3.492492 -5.748003
LeftLeg 13.918454 -0.000000 -0.000000
LeftFoot -31.787670 15.954816 -18.174311
LeftToeBase 22.664039 -0.000000 -0.000000
RightUpLeg -9.568348 -5.929790 9.749335
RightLeg 5.964647 -0.000000 -0.000000
RightFoot -21.532885 -32.660979 11.807718
RightToeBase 18.639334 -0.000000 -0.000000
147
root 24.067229 35.573918 -16.602354 -175.014480 -12.947081 -178.725138
Spine 2.614007 2.198367 -1.247004
Head 32.653261 -3.192673 5.541928
LeftShoulder -10.596601 -20.464277 -0.528544
LeftArm -20.072127 7.274308 -71.868690
LeftForeArm 1.260545 -0.000000 6.297490
LeftHand -0.974931 -0.000000 0.946639
LeftHandThumb1 -26.253704 0.000000 33.147579
RightShoulder -13.623276 -15.397047 9.226194
RightArm 11.849161 1.300543 69.336622
RightForeArm -28.302181 -0.000000 8.367730
RightHand -3.742793 -0.000000 -2.017165
RightHandThumb1 -24.326973 -0.000000 -32.862282
LeftUpLeg 6.359175 2.962102 -5.878028
LeftLeg 12.833025 -0.000000 -0.000000
LeftFoot -31.490249 15.854845 -18.084917
LeftToeBase 22.983338 -0.000000 -0.000000
RightUpLeg -9.940431 -5.996466 9.762500
RightLeg 6.475073 -0.000000 -0.000000
RightFoot -21.734619 -32.694727 11.968201
RightToeBase 18.689956 -0.000000 -0.000000
148
root 24.074485 35.564692 -16.555269 -175.062413 -13.153880 -178.709999
Spine 2.578140 2.151435 -1.257886
Head 32.748053 -3.302976 5.570735
LeftShoulder -10.589043 -20.499983 -0.419762
LeftArm -20.022411 7.104295 -71.829828
LeftForeArm 1.151187 -0.000000 6.436558
LeftHand -0.793558 0.000000 1.209464
LeftHandThumb1 -26.253704 0.000000 33.147579
RightShoulder -13.677760 -15.352739 9.228183
RightArm 11.858230 1.340697 69.311770
RightForeArm -28.226854 -0.000000 8.315956
RightHand -3.602356 -0.000000 -1.906982
RightHandThumb1 -24.326973 -0.000000 -32.862282
LeftUpLeg 6.762102 2.317578 -5.992292
LeftLeg 11.799946 -0.000000 -0.000000
LeftFoot -31.099283 15.863049 -17.975232
LeftToeBase 22.478671 -0.000000 -0.000000
RightUpLeg -10.256427 -6.088100 9.788405
RightLeg 6.994755 -0.000000 -0.000000
RightFoot -21.911567 -32.760933 12.071393
RightToeBase 18.763322 -0.000000 -0.000000
